<mxfile host="app.diagrams.net" agent="Mozilla/5.0 (Windows NT 10.0; Win64; x64) AppleWebKit/537.36 (KHTML, like Gecko) Chrome/131.0.0.0 Safari/537.36" version="26.0.5">
  <diagram name="Страница — 1" id="iqwA8raZE5RoAP26i20c">
    <mxGraphModel dx="1434" dy="780" grid="1" gridSize="10" guides="1" tooltips="1" connect="1" arrows="1" fold="1" page="1" pageScale="1" pageWidth="827" pageHeight="1169" math="0" shadow="0">
      <root>
        <mxCell id="0" />
        <mxCell id="1" parent="0" />
        <mxCell id="dXqffeZa56F7X6qxpakz-19" value="PriceScaner&lt;div&gt;&lt;br&gt;&lt;/div&gt;&lt;div&gt;информация о настоящей цене, наличии скидки&lt;/div&gt;" style="rounded=0;whiteSpace=wrap;html=1;" parent="1" vertex="1">
          <mxGeometry x="700" y="350" width="180" height="90" as="geometry" />
        </mxCell>
        <mxCell id="dXqffeZa56F7X6qxpakz-23" style="edgeStyle=orthogonalEdgeStyle;rounded=0;orthogonalLoop=1;jettySize=auto;html=1;exitX=1;exitY=0.5;exitDx=0;exitDy=0;endArrow=classic;endFill=1;startArrow=classic;startFill=1;entryX=0.5;entryY=1;entryDx=0;entryDy=0;" parent="1" source="dXqffeZa56F7X6qxpakz-20" target="dXqffeZa56F7X6qxpakz-19" edge="1">
          <mxGeometry relative="1" as="geometry">
            <Array as="points">
              <mxPoint x="790" y="645" />
            </Array>
            <mxPoint x="670" y="860" as="targetPoint" />
          </mxGeometry>
        </mxCell>
        <mxCell id="dXqffeZa56F7X6qxpakz-34" value="получение данных о&amp;nbsp;&lt;div&gt;цене и скидке&lt;/div&gt;" style="edgeLabel;html=1;align=center;verticalAlign=middle;resizable=0;points=[];" parent="dXqffeZa56F7X6qxpakz-23" vertex="1" connectable="0">
          <mxGeometry x="-0.1007" relative="1" as="geometry">
            <mxPoint y="-86" as="offset" />
          </mxGeometry>
        </mxCell>
        <mxCell id="dXqffeZa56F7X6qxpakz-25" style="edgeStyle=orthogonalEdgeStyle;rounded=0;orthogonalLoop=1;jettySize=auto;html=1;exitX=0.5;exitY=0;exitDx=0;exitDy=0;entryX=0.5;entryY=1;entryDx=0;entryDy=0;endArrow=classic;endFill=1;" parent="1" source="dXqffeZa56F7X6qxpakz-20" target="dXqffeZa56F7X6qxpakz-24" edge="1">
          <mxGeometry relative="1" as="geometry" />
        </mxCell>
        <mxCell id="dXqffeZa56F7X6qxpakz-35" value="отправление информации на запись в БД" style="edgeLabel;html=1;align=center;verticalAlign=middle;resizable=0;points=[];" parent="dXqffeZa56F7X6qxpakz-25" vertex="1" connectable="0">
          <mxGeometry x="-0.275" y="2" relative="1" as="geometry">
            <mxPoint x="2" y="-62" as="offset" />
          </mxGeometry>
        </mxCell>
        <mxCell id="FhdDqSoTDh6GXPdoo33t-10" style="edgeStyle=orthogonalEdgeStyle;rounded=0;orthogonalLoop=1;jettySize=auto;html=1;exitX=0;exitY=0.5;exitDx=0;exitDy=0;entryX=0;entryY=0.5;entryDx=0;entryDy=0;" edge="1" parent="1" source="dXqffeZa56F7X6qxpakz-20" target="dXqffeZa56F7X6qxpakz-37">
          <mxGeometry relative="1" as="geometry" />
        </mxCell>
        <mxCell id="FhdDqSoTDh6GXPdoo33t-11" value="информация о новой скидке&lt;div&gt;или о ее окончании&lt;/div&gt;" style="edgeLabel;html=1;align=center;verticalAlign=middle;resizable=0;points=[];" vertex="1" connectable="0" parent="FhdDqSoTDh6GXPdoo33t-10">
          <mxGeometry x="-0.4763" y="-3" relative="1" as="geometry">
            <mxPoint as="offset" />
          </mxGeometry>
        </mxCell>
        <mxCell id="dXqffeZa56F7X6qxpakz-20" value="SteamDiscounter&lt;div&gt;&lt;br&gt;&lt;/div&gt;&lt;div&gt;мониторинг скидок, перезапись информации при изменении, оповещение о скидке&lt;/div&gt;" style="rounded=0;whiteSpace=wrap;html=1;" parent="1" vertex="1">
          <mxGeometry x="469" y="600" width="180" height="90" as="geometry" />
        </mxCell>
        <mxCell id="dXqffeZa56F7X6qxpakz-26" style="edgeStyle=orthogonalEdgeStyle;rounded=0;orthogonalLoop=1;jettySize=auto;html=1;exitX=0;exitY=0.5;exitDx=0;exitDy=0;entryX=0.5;entryY=0;entryDx=0;entryDy=0;" parent="1" source="dXqffeZa56F7X6qxpakz-22" target="dXqffeZa56F7X6qxpakz-24" edge="1">
          <mxGeometry relative="1" as="geometry" />
        </mxCell>
        <mxCell id="dXqffeZa56F7X6qxpakz-36" value="отправление информации на запись в БД" style="edgeLabel;html=1;align=center;verticalAlign=middle;resizable=0;points=[];" parent="dXqffeZa56F7X6qxpakz-26" vertex="1" connectable="0">
          <mxGeometry x="-0.075" y="2" relative="1" as="geometry">
            <mxPoint x="-2" y="44" as="offset" />
          </mxGeometry>
        </mxCell>
        <mxCell id="FhdDqSoTDh6GXPdoo33t-2" style="edgeStyle=orthogonalEdgeStyle;rounded=0;orthogonalLoop=1;jettySize=auto;html=1;exitX=0.25;exitY=1;exitDx=0;exitDy=0;entryX=0.5;entryY=0;entryDx=0;entryDy=0;startArrow=classic;startFill=1;" edge="1" parent="1" source="dXqffeZa56F7X6qxpakz-22" target="dXqffeZa56F7X6qxpakz-19">
          <mxGeometry relative="1" as="geometry">
            <Array as="points">
              <mxPoint x="725" y="300" />
              <mxPoint x="790" y="300" />
            </Array>
          </mxGeometry>
        </mxCell>
        <mxCell id="FhdDqSoTDh6GXPdoo33t-6" value="получение информации" style="edgeLabel;html=1;align=center;verticalAlign=middle;resizable=0;points=[];" vertex="1" connectable="0" parent="FhdDqSoTDh6GXPdoo33t-2">
          <mxGeometry x="0.1243" y="2" relative="1" as="geometry">
            <mxPoint x="-29" y="-18" as="offset" />
          </mxGeometry>
        </mxCell>
        <mxCell id="FhdDqSoTDh6GXPdoo33t-3" style="edgeStyle=orthogonalEdgeStyle;rounded=0;orthogonalLoop=1;jettySize=auto;html=1;exitX=0.75;exitY=1;exitDx=0;exitDy=0;entryX=0.5;entryY=0;entryDx=0;entryDy=0;startArrow=classic;startFill=1;" edge="1" parent="1" source="dXqffeZa56F7X6qxpakz-22" target="FhdDqSoTDh6GXPdoo33t-1">
          <mxGeometry relative="1" as="geometry">
            <Array as="points">
              <mxPoint x="815" y="300" />
              <mxPoint x="980" y="300" />
            </Array>
          </mxGeometry>
        </mxCell>
        <mxCell id="FhdDqSoTDh6GXPdoo33t-5" value="получение информации" style="edgeLabel;html=1;align=center;verticalAlign=middle;resizable=0;points=[];" vertex="1" connectable="0" parent="FhdDqSoTDh6GXPdoo33t-3">
          <mxGeometry x="0.2421" y="1" relative="1" as="geometry">
            <mxPoint x="-22" as="offset" />
          </mxGeometry>
        </mxCell>
        <mxCell id="dXqffeZa56F7X6qxpakz-22" value="SteamParser&lt;div&gt;&lt;br&gt;&lt;/div&gt;&lt;div&gt;получение базовой информации об игре (имя, цена, ссылка)&lt;/div&gt;" style="rounded=0;whiteSpace=wrap;html=1;" parent="1" vertex="1">
          <mxGeometry x="680" y="140" width="180" height="90" as="geometry" />
        </mxCell>
        <mxCell id="dXqffeZa56F7X6qxpakz-28" style="edgeStyle=orthogonalEdgeStyle;rounded=0;orthogonalLoop=1;jettySize=auto;html=1;exitX=0;exitY=0.5;exitDx=0;exitDy=0;entryX=1;entryY=0.5;entryDx=0;entryDy=0;" parent="1" source="dXqffeZa56F7X6qxpakz-24" target="dXqffeZa56F7X6qxpakz-27" edge="1">
          <mxGeometry relative="1" as="geometry" />
        </mxCell>
        <mxCell id="dXqffeZa56F7X6qxpakz-24" value="BatabaseController&lt;div&gt;&lt;br&gt;&lt;/div&gt;&lt;div&gt;запись и удаление в БД игр, их скидок&lt;/div&gt;" style="rounded=0;whiteSpace=wrap;html=1;" parent="1" vertex="1">
          <mxGeometry x="469" y="350" width="180" height="90" as="geometry" />
        </mxCell>
        <mxCell id="dXqffeZa56F7X6qxpakz-27" value="steam_database" style="ellipse;whiteSpace=wrap;html=1;" parent="1" vertex="1">
          <mxGeometry x="290" y="355" width="120" height="80" as="geometry" />
        </mxCell>
        <mxCell id="dXqffeZa56F7X6qxpakz-30" style="edgeStyle=orthogonalEdgeStyle;rounded=0;orthogonalLoop=1;jettySize=auto;html=1;exitX=1;exitY=0.5;exitDx=0;exitDy=0;entryX=0;entryY=0.5;entryDx=0;entryDy=0;startArrow=classic;startFill=1;" parent="1" source="dXqffeZa56F7X6qxpakz-29" target="dXqffeZa56F7X6qxpakz-27" edge="1">
          <mxGeometry relative="1" as="geometry" />
        </mxCell>
        <mxCell id="dXqffeZa56F7X6qxpakz-38" style="edgeStyle=orthogonalEdgeStyle;rounded=0;orthogonalLoop=1;jettySize=auto;html=1;exitX=0.5;exitY=0;exitDx=0;exitDy=0;entryX=0.5;entryY=1;entryDx=0;entryDy=0;" parent="1" source="dXqffeZa56F7X6qxpakz-29" target="dXqffeZa56F7X6qxpakz-37" edge="1">
          <mxGeometry relative="1" as="geometry" />
        </mxCell>
        <mxCell id="dXqffeZa56F7X6qxpakz-29" value="DatabaseGetter&lt;div&gt;&lt;br&gt;&lt;/div&gt;&lt;div&gt;Получение из БД информации об играх и скидках&lt;/div&gt;" style="rounded=0;whiteSpace=wrap;html=1;" parent="1" vertex="1">
          <mxGeometry x="40" y="350" width="180" height="90" as="geometry" />
        </mxCell>
        <mxCell id="FhdDqSoTDh6GXPdoo33t-4" style="edgeStyle=orthogonalEdgeStyle;rounded=0;orthogonalLoop=1;jettySize=auto;html=1;exitX=0;exitY=0.5;exitDx=0;exitDy=0;entryX=1;entryY=0.5;entryDx=0;entryDy=0;" edge="1" parent="1" source="dXqffeZa56F7X6qxpakz-31" target="dXqffeZa56F7X6qxpakz-22">
          <mxGeometry relative="1" as="geometry" />
        </mxCell>
        <mxCell id="FhdDqSoTDh6GXPdoo33t-8" style="edgeStyle=orthogonalEdgeStyle;rounded=0;orthogonalLoop=1;jettySize=auto;html=1;exitX=1;exitY=0.5;exitDx=0;exitDy=0;entryX=0;entryY=0.5;entryDx=0;entryDy=0;startArrow=classic;startFill=1;" edge="1" parent="1" source="dXqffeZa56F7X6qxpakz-31" target="FhdDqSoTDh6GXPdoo33t-7">
          <mxGeometry relative="1" as="geometry" />
        </mxCell>
        <mxCell id="FhdDqSoTDh6GXPdoo33t-9" value="обмен информацией&lt;div&gt;об играх&lt;/div&gt;" style="edgeLabel;html=1;align=center;verticalAlign=middle;resizable=0;points=[];" vertex="1" connectable="0" parent="FhdDqSoTDh6GXPdoo33t-8">
          <mxGeometry x="-0.05" relative="1" as="geometry">
            <mxPoint as="offset" />
          </mxGeometry>
        </mxCell>
        <mxCell id="dXqffeZa56F7X6qxpakz-31" value="MAIN BLOCK&lt;div&gt;&lt;br&gt;&lt;/div&gt;&lt;div&gt;объединяет все модули, регулирует их работу&lt;/div&gt;" style="rounded=0;whiteSpace=wrap;html=1;" parent="1" vertex="1">
          <mxGeometry x="935" y="143.75" width="150" height="82.5" as="geometry" />
        </mxCell>
        <mxCell id="dXqffeZa56F7X6qxpakz-39" style="edgeStyle=orthogonalEdgeStyle;rounded=0;orthogonalLoop=1;jettySize=auto;html=1;exitX=0.5;exitY=0;exitDx=0;exitDy=0;entryX=0.5;entryY=0;entryDx=0;entryDy=0;" parent="1" source="dXqffeZa56F7X6qxpakz-37" target="dXqffeZa56F7X6qxpakz-31" edge="1">
          <mxGeometry relative="1" as="geometry">
            <mxPoint x="1290" y="280" as="targetPoint" />
            <Array as="points">
              <mxPoint x="130" y="80" />
              <mxPoint x="1010" y="80" />
            </Array>
          </mxGeometry>
        </mxCell>
        <mxCell id="dXqffeZa56F7X6qxpakz-37" value="&lt;div&gt;DataFormatter&lt;/div&gt;&lt;div&gt;&lt;br&gt;&lt;/div&gt;&lt;div&gt;обработка инфы по играм перед выводом в бот&lt;/div&gt;" style="rounded=0;whiteSpace=wrap;html=1;" parent="1" vertex="1">
          <mxGeometry x="40" y="160" width="180" height="90" as="geometry" />
        </mxCell>
        <mxCell id="dXqffeZa56F7X6qxpakz-40" style="edgeStyle=orthogonalEdgeStyle;rounded=0;orthogonalLoop=1;jettySize=auto;html=1;exitX=0.5;exitY=1;exitDx=0;exitDy=0;entryX=0.289;entryY=0.022;entryDx=0;entryDy=0;entryPerimeter=0;startArrow=classic;startFill=1;" parent="1" source="dXqffeZa56F7X6qxpakz-29" target="dXqffeZa56F7X6qxpakz-20" edge="1">
          <mxGeometry relative="1" as="geometry" />
        </mxCell>
        <mxCell id="dXqffeZa56F7X6qxpakz-41" value="запрос на получения списка игр&lt;div&gt;для дальнейшего поиска скидок&lt;/div&gt;" style="edgeLabel;html=1;align=center;verticalAlign=middle;resizable=0;points=[];" parent="dXqffeZa56F7X6qxpakz-40" vertex="1" connectable="0">
          <mxGeometry x="-0.0054" y="3" relative="1" as="geometry">
            <mxPoint as="offset" />
          </mxGeometry>
        </mxCell>
        <mxCell id="FhdDqSoTDh6GXPdoo33t-1" value="NameScaner&lt;div&gt;&lt;br&gt;&lt;/div&gt;&lt;div&gt;информация о названии и ссылке игры&lt;/div&gt;" style="rounded=0;whiteSpace=wrap;html=1;" vertex="1" parent="1">
          <mxGeometry x="890" y="350" width="180" height="90" as="geometry" />
        </mxCell>
        <mxCell id="FhdDqSoTDh6GXPdoo33t-7" value="BOT" style="rounded=0;whiteSpace=wrap;html=1;" vertex="1" parent="1">
          <mxGeometry x="1250" y="155" width="120" height="60" as="geometry" />
        </mxCell>
        <mxCell id="FhdDqSoTDh6GXPdoo33t-13" style="edgeStyle=orthogonalEdgeStyle;rounded=0;orthogonalLoop=1;jettySize=auto;html=1;exitX=0.5;exitY=0;exitDx=0;exitDy=0;entryX=0.5;entryY=1;entryDx=0;entryDy=0;" edge="1" parent="1" source="FhdDqSoTDh6GXPdoo33t-12" target="dXqffeZa56F7X6qxpakz-20">
          <mxGeometry relative="1" as="geometry" />
        </mxCell>
        <mxCell id="FhdDqSoTDh6GXPdoo33t-14" value="запуск цикла парсинга" style="edgeLabel;html=1;align=center;verticalAlign=middle;resizable=0;points=[];" vertex="1" connectable="0" parent="FhdDqSoTDh6GXPdoo33t-13">
          <mxGeometry x="-0.0857" relative="1" as="geometry">
            <mxPoint as="offset" />
          </mxGeometry>
        </mxCell>
        <mxCell id="FhdDqSoTDh6GXPdoo33t-12" value="Timer&lt;div&gt;&lt;br&gt;&lt;/div&gt;&lt;div&gt;отсчет заданного количества времени&lt;/div&gt;" style="rounded=0;whiteSpace=wrap;html=1;" vertex="1" parent="1">
          <mxGeometry x="486" y="770" width="146" height="80" as="geometry" />
        </mxCell>
      </root>
    </mxGraphModel>
  </diagram>
</mxfile>
